<svg width="18" height="18" viewBox="0 0 18 18" fill="none" xmlns="http://www.w3.org/2000/svg">
<path fill-rule="evenodd" clip-rule="evenodd" d="M9 0C6.5556 0 6.2496 0.0102 5.2896 0.054C4.3314 0.0978 3.6768 0.2502 3.1044 0.4728C2.5044 0.6984 1.9602 1.0524 1.5102 1.5108C1.05253 1.96028 0.698315 2.5041 0.4722 3.1044C0.2508 3.6768 0.0978 4.332 0.054 5.2902C0.0108 6.2496 0 6.555 0 9C0 11.445 0.0102 11.7504 0.054 12.7104C0.0978 13.6686 0.2502 14.3232 0.4728 14.8956C0.6984 15.4956 1.0524 16.0398 1.5108 16.4898C1.96029 16.9475 2.50411 17.3017 3.1044 17.5278C3.6768 17.7498 4.3314 17.9022 5.2896 17.946C6.2496 17.9898 6.5556 18 9 18C11.4444 18 11.7504 17.9898 12.7104 17.946C13.6686 17.9022 14.3232 17.7498 14.8956 17.5272C15.4956 17.3016 16.0398 16.9476 16.4898 16.4892C16.9475 16.0397 17.3017 15.4959 17.5278 14.8956C17.7498 14.3232 17.9022 13.6686 17.946 12.7104C17.9898 11.7504 18 11.4444 18 9C18 6.5556 17.9898 6.2496 17.946 5.2896C17.9022 4.3314 17.7498 3.6768 17.5272 3.1044C17.3012 2.50384 16.947 1.95979 16.4892 1.5102C16.0397 1.05253 15.4959 0.698315 14.8956 0.4722C14.3232 0.2508 13.668 0.0978 12.7098 0.054C11.7504 0.0108 11.445 0 9 0ZM9 1.6218C11.403 1.6218 11.688 1.6308 12.6372 1.674C13.5144 1.7142 13.9908 1.86 14.3082 1.9842C14.7282 2.1468 15.0282 2.3424 15.3432 2.6568C15.6582 2.9718 15.8532 3.2718 16.0158 3.6918C16.1394 4.0092 16.2858 4.4856 16.326 5.3628C16.3692 6.312 16.3782 6.597 16.3782 9C16.3782 11.403 16.3692 11.688 16.326 12.6372C16.2858 13.5144 16.14 13.9908 16.0158 14.3082C15.8718 14.6991 15.6419 15.0528 15.3432 15.3432C15.0528 15.642 14.6992 15.8718 14.3082 16.0158C13.9908 16.1394 13.5144 16.2858 12.6372 16.326C11.688 16.3692 11.4036 16.3782 9 16.3782C6.5964 16.3782 6.312 16.3692 5.3628 16.326C4.4856 16.2858 4.0092 16.14 3.6918 16.0158C3.30087 15.8718 2.9472 15.6419 2.6568 15.3432C2.35811 15.0528 2.12828 14.6991 1.9842 14.3082C1.8606 13.9908 1.7142 13.5144 1.674 12.6372C1.6308 11.688 1.6218 11.403 1.6218 9C1.6218 6.597 1.6308 6.312 1.674 5.3628C1.7142 4.4856 1.86 4.0092 1.9842 3.6918C2.1468 3.2718 2.3424 2.9718 2.6568 2.6568C2.94716 2.35803 3.30085 2.12819 3.6918 1.9842C4.0092 1.8606 4.4856 1.7142 5.3628 1.674C6.312 1.6308 6.597 1.6218 9 1.6218V1.6218Z" fill="black"/>
<path fill-rule="evenodd" clip-rule="evenodd" d="M9.00002 12.003C8.60566 12.003 8.21516 11.9254 7.85082 11.7744C7.48648 11.6235 7.15544 11.4023 6.87658 11.1235C6.59773 10.8446 6.37653 10.5136 6.22561 10.1492C6.0747 9.78489 5.99702 9.39439 5.99702 9.00003C5.99702 8.60567 6.0747 8.21518 6.22561 7.85083C6.37653 7.48649 6.59773 7.15545 6.87658 6.87659C7.15544 6.59774 7.48648 6.37654 7.85082 6.22562C8.21516 6.07471 8.60566 5.99703 9.00002 5.99703C9.79647 5.99703 10.5603 6.31342 11.1235 6.87659C11.6866 7.43976 12.003 8.20359 12.003 9.00003C12.003 9.79648 11.6866 10.5603 11.1235 11.1235C10.5603 11.6866 9.79647 12.003 9.00002 12.003V12.003ZM9.00002 4.37403C7.77313 4.37403 6.59649 4.86141 5.72895 5.72896C4.8614 6.5965 4.37402 7.77314 4.37402 9.00003C4.37402 10.2269 4.8614 11.4036 5.72895 12.2711C6.59649 13.1387 7.77313 13.626 9.00002 13.626C10.2269 13.626 11.4036 13.1387 12.2711 12.2711C13.1386 11.4036 13.626 10.2269 13.626 9.00003C13.626 7.77314 13.1386 6.5965 12.2711 5.72896C11.4036 4.86141 10.2269 4.37403 9.00002 4.37403V4.37403ZM14.9718 4.29003C14.9718 4.58005 14.8566 4.85818 14.6515 5.06325C14.4465 5.26833 14.1683 5.38353 13.8783 5.38353C13.5883 5.38353 13.3102 5.26833 13.1051 5.06325C12.9 4.85818 12.7848 4.58005 12.7848 4.29003C12.7848 4.00002 12.9 3.72188 13.1051 3.51681C13.3102 3.31174 13.5883 3.19653 13.8783 3.19653C14.1683 3.19653 14.4465 3.31174 14.6515 3.51681C14.8566 3.72188 14.9718 4.00002 14.9718 4.29003" fill="black"/>
</svg>
